<?xml version="1.0" standalone="no"?>
<!DOCTYPE svg PUBLIC "-//W3C//DTD SVG 20010904//EN"
 "http://www.w3.org/TR/2001/REC-SVG-20010904/DTD/svg10.dtd">
<svg version="1.0" xmlns="http://www.w3.org/2000/svg"
 width="980.000000pt" height="760.000000pt" viewBox="0 0 980.000000 760.000000"
 preserveAspectRatio="xMidYMid meet">

<g transform="translate(0.000000,760.000000) scale(0.100000,-0.100000)"
fill="#000000" stroke="none">
<path d="M3390 7575 c-303 -51 -577 -198 -793 -424 -178 -188 -299 -415 -359
-679 -22 -97 -22 -102 -25 -1174 l-4 -1078 -947 -2 -947 -3 -68 -32 c-127 -60
-216 -178 -240 -317 -31 -181 69 -368 240 -449 l68 -32 947 -3 947 -2 4 -1078
c3 -1050 3 -1079 24 -1167 67 -292 185 -507 388 -711 169 -170 348 -279 575
-352 211 -67 23 -63 2850 -59 2328 3 2561 4 2620 19 257 65 439 153 615 298
250 206 416 483 488 815 l22 100 0 2555 c0 2465 -1 2558 -19 2645 -62 294
-184 524 -391 730 -202 202 -416 321 -708 392 -68 16 -225 18 -2642 19 -2042
2 -2585 -1 -2645 -11z m2306 -1854 c65 -31 120 -84 885 -850 950 -950 884
-869 884 -1071 0 -202 67 -121 -884 -1071 -950 -949 -871 -884 -1071 -884
-107 0 -119 2 -175 29 -69 34 -154 110 -189 170 -68 117 -75 278 -16 401 30
65 66 103 463 503 l431 432 -1907 0 -1907 0 0 420 0 420 1905 0 c1048 0 1905
3 1905 8 0 4 -187 194 -416 422 -228 228 -428 433 -444 456 -113 162 -86 404
62 540 96 89 168 115 304 112 90 -3 107 -7 170 -37z"/>
</g>
</svg>
