<?xml version="1.0" standalone="no"?>
<!DOCTYPE svg PUBLIC "-//W3C//DTD SVG 20010904//EN"
 "http://www.w3.org/TR/2001/REC-SVG-20010904/DTD/svg10.dtd">
<svg version="1.0" xmlns="http://www.w3.org/2000/svg"
 width="1024.000000pt" height="1024.000000pt" viewBox="0 0 1024.000000 1024.000000"
 preserveAspectRatio="xMidYMid meet">

<g transform="translate(0.000000,1024.000000) scale(0.100000,-0.100000)"
fill="#000000" stroke="none">
<path d="M4905 9379 c-490 -53 -917 -256 -1278 -608 -447 -434 -667 -954 -667
-1569 0 -271 30 -468 106 -702 105 -321 272 -587 529 -846 359 -360 741 -555
1235 -630 158 -24 482 -25 640 -1 477 73 849 256 1196 590 369 354 582 763
655 1252 22 151 27 456 9 600 -51 415 -201 773 -454 1090 -86 107 -279 297
-391 384 -286 225 -595 360 -965 423 -136 23 -475 32 -615 17z"/>
<path d="M2918 5359 c-274 -28 -535 -120 -757 -267 -170 -112 -376 -340 -509
-563 -334 -557 -521 -1409 -522 -2366 0 -236 15 -384 55 -532 139 -518 534
-874 1088 -982 199 -39 310 -40 2982 -37 2356 4 2599 5 2690 20 221 37 412
102 558 190 383 230 602 577 658 1042 15 129 6 713 -15 922 -89 874 -304 1527
-647 1965 -185 235 -361 371 -629 486 -172 73 -351 113 -582 129 -94 6 -98 6
-163 -24 -36 -17 -193 -113 -348 -213 -320 -207 -443 -274 -642 -352 -362
-143 -648 -200 -990 -200 -352 1 -692 76 -1063 234 -163 70 -229 107 -542 309
-151 97 -304 192 -340 211 -74 38 -130 44 -282 28z"/>
</g>
</svg>
